<?xml version="1.0" encoding="iso-8859-1"?>
<!-- Generator: Adobe Illustrator 19.0.0, SVG Export Plug-In . SVG Version: 6.00 Build 0)  -->
<svg version="1.1" id="Capa_1" xmlns="http://www.w3.org/2000/svg" xmlns:xlink="http://www.w3.org/1999/xlink" x="0px" y="0px"
	 viewBox="0 0 512 512" style="enable-background:new 0 0 512 512;" xml:space="preserve">
<g>
	<g>
		<path d="M414.5,0h-317c-33.084,0-60,26.916-60,60v392c0,33.084,26.916,60,60,60h317c33.084,0,60-26.916,60-60V60
			C474.5,26.916,447.584,0,414.5,0z M444.5,452c0,16.542-13.458,30-30,30h-317c-16.542,0-30-13.458-30-30V60
			c0-16.542,13.458-30,30-30h317c16.542,0,30,13.458,30,30V452z"/>
	</g>
</g>
<g>
	<g>
		<path d="M357.702,201.773c-16.828-14.256-38.669-22.107-61.5-22.107c-5.578,0-11.225,0.47-16.783,1.396L211,192.465V60h-90
			v238.707l173.215-28.87c2.32-0.388,4.449-0.124,5.313,0.606c0.679,0.576,1.472,2.268,1.472,5.142V452h90V275.586
			C391,246.603,378.863,219.699,357.702,201.773z M361,422h-30V275.586c0-11.477-4.29-21.433-12.081-28.032
			c-6.104-5.17-13.912-7.903-22.582-7.903c-2.313,0-4.687,0.2-7.055,0.595L151,263.293V90h30v137.879l103.351-17.225
			c3.933-0.655,7.921-0.988,11.852-0.988c15.738,0,30.692,5.326,42.108,14.998C352.729,236.878,361,255.439,361,275.586V422z"/>
	</g>
</g>
<g>
	<g>
		<path d="M121,304v150l100-75L121,304z M151,364l20,15l-20,15V364z"/>
	</g>
</g>
<g>
	<g>
		<path d="M301,60v15c0,19.204-2.802,38.22-8.328,56.522l-5.839,19.336h94.278l2.665-11.657C388.569,118.234,391,96.633,391,75V60
			H301z M356.912,120.858h-30.606c2.107-10.167,3.509-20.473,4.198-30.858h30.062C359.966,100.364,358.745,110.678,356.912,120.858z
			"/>
	</g>
</g>
<g>
</g>
<g>
</g>
<g>
</g>
<g>
</g>
<g>
</g>
<g>
</g>
<g>
</g>
<g>
</g>
<g>
</g>
<g>
</g>
<g>
</g>
<g>
</g>
<g>
</g>
<g>
</g>
<g>
</g>
</svg>
